<svg xmlns="http://www.w3.org/2000/svg" viewBox="0 0 1440 320"><path fill="#ffd700" fill-opacity="0.6" d="M0,128L0,32L36.9,32L36.9,288L73.8,288L73.8,32L110.8,32L110.8,224L147.7,224L147.7,192L184.6,192L184.6,128L221.5,128L221.5,160L258.5,160L258.5,160L295.4,160L295.4,256L332.3,256L332.3,160L369.2,160L369.2,128L406.2,128L406.2,288L443.1,288L443.1,96L480,96L480,224L516.9,224L516.9,320L553.8,320L553.8,160L590.8,160L590.8,64L627.7,64L627.7,96L664.6,96L664.6,256L701.5,256L701.5,288L738.5,288L738.5,192L775.4,192L775.4,64L812.3,64L812.3,128L849.2,128L849.2,64L886.2,64L886.2,288L923.1,288L923.1,32L960,32L960,128L996.9,128L996.9,0L1033.8,0L1033.8,96L1070.8,96L1070.8,160L1107.7,160L1107.7,64L1144.6,64L1144.6,256L1181.5,256L1181.5,64L1218.5,64L1218.5,288L1255.4,288L1255.4,128L1292.3,128L1292.3,256L1329.2,256L1329.2,0L1366.2,0L1366.2,192L1403.1,192L1403.1,160L1440,160L1440,320L1403.1,320L1403.1,320L1366.2,320L1366.2,320L1329.2,320L1329.2,320L1292.3,320L1292.3,320L1255.4,320L1255.4,320L1218.5,320L1218.5,320L1181.5,320L1181.5,320L1144.6,320L1144.6,320L1107.7,320L1107.7,320L1070.8,320L1070.8,320L1033.8,320L1033.8,320L996.9,320L996.9,320L960,320L960,320L923.1,320L923.1,320L886.2,320L886.2,320L849.2,320L849.2,320L812.3,320L812.3,320L775.4,320L775.4,320L738.5,320L738.5,320L701.5,320L701.5,320L664.6,320L664.6,320L627.7,320L627.7,320L590.8,320L590.8,320L553.8,320L553.8,320L516.9,320L516.9,320L480,320L480,320L443.1,320L443.1,320L406.2,320L406.2,320L369.2,320L369.2,320L332.3,320L332.3,320L295.4,320L295.4,320L258.5,320L258.5,320L221.5,320L221.5,320L184.6,320L184.6,320L147.7,320L147.7,320L110.8,320L110.8,320L73.8,320L73.8,320L36.9,320L36.9,320L0,320L0,320Z"></path></svg>